<svg xmlns="http://www.w3.org/2000/svg" xmlns:xlink="http://www.w3.org/1999/xlink" id="Layer_1" x="0px" y="0px" width="40px" height="54px" viewBox="0 0 40 54" xml:space="preserve"><g>	<g>		<path fill="#1091CE" d="M12.488,22.269c3.108,0,5.639-2.561,5.639-5.711c0-3.148-2.53-5.71-5.639-5.71s-5.639,2.561-5.639,5.71   C6.851,19.708,9.38,22.269,12.488,22.269z M11.927,11.844h1.123v4.146h4.098v1.137h-5.221V11.844z M0.766,1.027v51.946h32.591   l5.878-5.951V1.027H0.766z M32.252,18.343h1.121v4.739h-1.121V18.343z M29.989,14.131h1.122v8.952h-1.122V14.131z M27.727,9.999   h1.122v13.083h-1.122V9.999z M25.465,14.407h1.121v8.676h-1.121V14.407z M23.202,20.47h1.123v2.612h-1.123V20.47z M12.488,9.711   c3.729,0,6.762,3.072,6.762,6.849c0,3.776-3.033,6.847-6.762,6.847c-3.728,0-6.761-3.071-6.761-6.847   C5.728,12.784,8.761,9.711,12.488,9.711z M9.214,44.857l-2.648-2.611l1.006-1.104l1.525,1.504l3.631-4.471l1.116,0.982   L9.214,44.857z M9.214,36.164l-2.648-2.609l1.006-1.105l1.525,1.504l3.631-4.469l1.116,0.982L9.214,36.164z M33.434,43.506h-16.74   v-1.135h16.74V43.506L33.434,43.506z M33.434,40.658h-16.74v-1.135h16.74V40.658L33.434,40.658z M33.434,34.814h-16.74v-1.137   h16.74V34.814L33.434,34.814z M33.434,31.969h-16.74v-1.137h16.74V31.969L33.434,31.969z M33.525,51.195v-4.002h3.951   L33.525,51.195z"></path>	</g></g></svg>