<svg xmlns="http://www.w3.org/2000/svg" xmlns:xlink="http://www.w3.org/1999/xlink" id="Layer_1" x="0px" y="0px" width="50px" height="50.993px" viewBox="0 0 50 50.993" xml:space="preserve"><g>	<g>		<path fill="#0991D0" d="M33.592,5.462h-0.51l-1.404-4.217C31.432,0.502,30.737,0,29.955,0h-10.91   c-0.782,0-1.477,0.502-1.724,1.246l-1.405,4.217h-0.507v7.284h18.183V5.462z M26.317,9.104c0,1.006-0.813,1.821-1.817,1.821   s-1.818-0.815-1.818-1.821v-1.82c0-1.006,0.814-1.821,1.818-1.821s1.817,0.815,1.817,1.821V9.104z M42.681,5.462h-5.453v9.104   c0,1.006-0.814,1.821-1.817,1.821H13.591c-1.005,0-1.818-0.815-1.818-1.821V5.462H6.318C5.313,5.462,4.5,6.277,4.5,7.284v41.881   c0,1.004,0.813,1.82,1.818,1.82h36.362c1.005,0,1.819-0.816,1.819-1.82V7.284C44.5,6.277,43.686,5.462,42.681,5.462z M35.41,40.06   H13.591c-1.005,0-1.818-0.815-1.818-1.82c0-1.007,0.813-1.82,1.818-1.82H35.41c1.003,0,1.817,0.813,1.817,1.82   C37.228,39.244,36.413,40.06,35.41,40.06z M35.41,32.776H13.591c-1.005,0-1.818-0.815-1.818-1.82c0-1.006,0.813-1.821,1.818-1.821   H35.41c1.003,0,1.817,0.815,1.817,1.821C37.228,31.961,36.413,32.776,35.41,32.776z M35.41,25.493H13.591   c-1.005,0-1.818-0.815-1.818-1.821c0-1.005,0.813-1.82,1.818-1.82H35.41c1.003,0,1.817,0.815,1.817,1.82   C37.228,24.677,36.413,25.493,35.41,25.493z"></path>	</g></g></svg>