<svg xmlns="http://www.w3.org/2000/svg" xmlns:xlink="http://www.w3.org/1999/xlink" id="Layer_1" x="0px" y="0px" width="50px" height="50px" viewBox="0 0 50 50" xml:space="preserve"><g>	<path fill-rule="evenodd" clip-rule="evenodd" fill="#0191d0" d="M48.886,11.701c-0.254,0.887-0.597,1.721-1.29,2.371  c-0.807,0.756-1.757,1.165-2.86,1.175c-1.43,0.012-2.858,0.002-4.319,0.002c0-1.871,0-3.711,0-5.602c0.411,0,0.812,0.002,1.21,0  c0.941-0.004,1.572-0.58,1.563-1.421c-0.012-0.821-0.637-1.383-1.551-1.383C33.295,6.841,24.953,6.841,16.61,6.841  c-2.801,0-5.602-0.003-8.404,0.002c-0.815,0.001-1.422,0.57-1.457,1.335C6.716,8.902,7.258,9.571,7.982,9.632  c0.494,0.042,0.994,0.008,1.53,0.008c0,1.863,0,3.704,0,5.608c-0.324,0-0.66,0-0.997,0c-1.042,0-2.085,0.001-3.128,0  c-2.147-0.001-3.774-1.3-4.254-3.393c-0.013-0.055-0.055-0.104-0.084-0.156c0-2.367,0-4.734,0-7.101  c0.236-0.802,0.536-1.567,1.119-2.2C2.834,1.678,3.684,1.309,4.6,1.05c13.579,0,27.158,0,40.736,0  c0.915,0.259,1.765,0.628,2.43,1.35c0.585,0.632,0.882,1.398,1.12,2.2C48.886,6.967,48.886,9.334,48.886,11.701z"></path>	<g>		<g>			<path fill-rule="evenodd" clip-rule="evenodd" fill="#0191d0" d="M43.157,37.686h-5.563V9.675H12.356v0.521    c0,11.911,0,23.822,0.001,35.734c0,1.488,0.758,2.476,2.214,2.888c0.042,0.011,0.08,0.045,0.12,0.068h26.16    c0.511-0.279,1.075-0.492,1.519-0.854c0.545-0.445,0.806-1.109,0.809-1.821c0.015-2.773,0.006-5.544,0.005-8.314    C43.183,37.837,43.168,37.779,43.157,37.686z M19.687,12.852c0.477-0.01,0.953-0.028,1.429-0.045    c0.058-0.002,0.115-0.014,0.172-0.021h9.782v2.295c-0.077,0.005-0.152,0.013-0.228,0.014c-1.264,0-2.527,0-3.791,0h-0.235    c0.518,0.724,0.913,1.463,1.092,2.317h3.162v2.294c-0.976,0.002-1.953,0.008-2.931,0.001c-0.162-0.002-0.231,0.039-0.274,0.201    c-0.54,1.981-1.831,3.275-3.704,4.03c-0.237,0.096-0.487,0.157-0.797,0.256c1.867,1.835,3.696,3.633,5.523,5.427    c-0.547,0.541-1.084,1.073-1.631,1.615c-0.554-0.541-1.124-1.094-1.692-1.646c-1.592-1.548-3.182-3.095-4.773-4.641    c-0.122-0.119-0.258-0.224-0.379-0.344c-0.233-0.231-0.526-0.295-0.863-0.304v-2.258c0.541-0.014,1.093-0.02,1.644-0.044    c0.629-0.026,1.263-0.022,1.883-0.114c1.129-0.167,1.921-0.823,2.412-1.847c0.03-0.063,0.049-0.132,0.071-0.198    c0.009-0.033,0.011-0.068,0.021-0.125h-5.975v-2.304h5.998c-0.06-0.162-0.097-0.305-0.164-0.431    c-0.587-1.111-1.498-1.72-2.767-1.759c-0.953-0.029-1.906-0.053-2.859-0.079c-0.081-0.002-0.162-0.009-0.272-0.017    c0-0.718,0-1.423,0-2.129C19.541,12.9,19.579,12.854,19.687,12.852z M34.47,42.75c-0.308,0.396-0.736,0.535-1.234,0.534    c-2.756-0.007-5.512-0.003-8.267-0.003h-8.173c-0.999,0-1.631-0.537-1.638-1.391c-0.007-0.855,0.627-1.415,1.614-1.415    c5.496-0.001,10.99,0,16.486-0.002c0.616,0,1.09,0.232,1.371,0.788C34.895,41.787,34.821,42.294,34.47,42.75z M34.47,37.145    c-0.308,0.397-0.737,0.536-1.234,0.535c-2.756-0.007-5.512-0.003-8.267-0.003h-8.173c-0.999-0.002-1.631-0.539-1.638-1.392    c-0.007-0.856,0.628-1.416,1.614-1.416c5.496,0,10.992,0.002,16.486-0.001c0.616,0,1.091,0.231,1.371,0.789    C34.895,36.181,34.821,36.688,34.47,37.145z M40.386,43.44c0,0.434,0.014,0.871-0.006,1.307    c-0.033,0.737-0.634,1.318-1.359,1.337c-0.725,0.019-1.407-0.535-1.426-1.261c-0.035-1.427-0.011-2.857-0.011-4.328h2.802V43.44z    "></path>		</g>	</g></g></svg>