<svg xmlns="http://www.w3.org/2000/svg" width="40px" height="60px" viewBox="0 0 40 60" xml:space="preserve">	<path d="m38.51 57.429c-3.628-9.531-9.688-42.034-8.809-50.584-2.821 21.631 1.414 43.606 3.939 51.402l4.87-0.818z" fill="#067FB8"></path>	<path d="M1.491,53.97C5.464,45.021,14.096,14.613,13.532,6.4c2.022,20.804-4.426,41.456-7.234,48.792L1.491,53.97z" fill="#067FB8"></path>	<path d="m20.376-2.006c0.367 1.506 1.241 5.503-2.469 6.642-3.711 1.139-5.54 1.955-6.09 5.225l2.976 1.396 0.735-0.882c0.551 1.323-0.514 3.16-0.331 5.217 0.184 2.057 2.938 6.098 2.42 9.625s-3.176 5.327-3.983 10.727c8.707 2.83 18.842 2.352 16.492-4.775-0.736-2.094-2.912-4.225-2.544-8.744 0.386-4.76 3.008-12.197 3.008-12.197l3.344-0.919c-1.028-5.327-2.351-5.18-5.4-5.547-3.05-0.368-3.707-4.042-3.707-5.768h-4.451z" display="none" fill="#FCC7A3"></path>	<ellipse cx="22.602" cy="-2.006" rx="2.224" ry=".564" display="none" fill="#FDD1B0"></ellipse>	<path d="m18.299 4.497c0.751-0.389 2.069 1.1 4.576 0.488 2.506-0.612 3.418-1.946 5.063-1.345 0.331-0.93-0.369-1.608-1.048-1.608 0-0.678-0.765-2.057-3.105-0.831-2.342 1.225-3.085-0.35-3.785 0.349-0.7 0.109-1.115 1.05-0.896 1.728-0.548 0-1.061 0.513-0.805 1.219z" fill="#0991D0"></path>		<path d="m32.164 57.567s-0.842-3.997-0.605-12.941-0.128-11.523-2.221-15.581c-2.092-4.057-1.632-6.532-1.224-8.574 0 0 0.912 0.06 1.887-1.403 1.634-2.449 0.179-5.919 0.741-8.675l3.495-0.868c-0.74-4.924-3.036-6.226-5.718-6.098-0.302 4.952-3.623 9.783-7.064 10.749-3.442-1.449-3.926-8.394-3.926-9.782-2.925 0.729-5.534 1.951-5.997 5.703l3.398 1.441 0.517-0.816c-0.366 2.657-2.882 7.081 0.785 9.346 0.251 2.014-0.755 6.365-2.913 10.034-2.157 3.667-3.38 6.831-3.38 14.311s-1.078 12.118-1.078 12.118 3.965 1.354 10.068 1.797c6.94 0.504 13.235-0.761 13.235-0.761z" fill="#0991D0"></path>	<path d="m27.992 57.262c-1.422-6.247 4.505-22.313-1.764-28.582 2.94 10.601-3.145 17.985-1.447 26.456 0.465 2.315 3.211 2.126 3.211 2.126z" fill="#067FB8"></path>	<path d="m19.132 21.292c0 5.018-5.816 13.348-5.816 20.825-2.345-6.827 3.586-15.432 5.816-20.825z" fill="#067FB8"></path></svg>