<svg xmlns="http://www.w3.org/2000/svg" xmlns:xlink="http://www.w3.org/1999/xlink" id="Layer_1" x="0px" y="0px" width="50px" height="50px" viewBox="0 0 50 50" xml:space="preserve"><g>	<g>		<path fill="#0991D0" d="M36.411,24.842c6.651,0,12.073-5.563,12.073-12.387c0-6.824-5.37-12.44-12.073-12.44   c-4.86,0-9.054,2.991-10.999,7.243c-0.255-0.053-0.46-0.105-0.716-0.157l-1.739-4.2c-0.102-0.472-0.512-0.839-0.973-0.839h-3.12   c-0.461,0-0.87,0.368-0.973,0.839l-1.739,4.147C8.734,8.57,4.488,15.341,4.488,23.425v14.067l-2.763,5.982   C1.009,44.84,1.93,46.52,3.464,46.52H16.05c0.461,1.994,2.2,3.465,4.247,3.465c2.046,0,3.837-1.471,4.246-3.465h12.585   c1.534,0,2.456-1.68,1.739-3.045l-2.764-5.982v-12.65H36.411z M26.794,12.455c0-5.459,4.348-9.92,9.617-9.92   s9.619,4.409,9.619,9.867c0,5.459-4.298,9.921-9.619,9.921C31.092,22.323,26.794,17.914,26.794,12.455z M36.719,16.128   l2.917,1.365c0.306,0.158,0.613-0.104,0.613-0.472l-0.411-3.254c0-0.105,0.054-0.262,0.104-0.314l2.099-2.415   c0.256-0.262,0.153-0.682-0.206-0.734l-3.119-0.735c-0.104-0.052-0.205-0.105-0.257-0.21l-1.586-2.782   c-0.153-0.314-0.563-0.314-0.715,0L34.57,9.357c-0.051,0.105-0.152,0.158-0.256,0.21l-3.173,0.735   c-0.306,0.052-0.46,0.473-0.204,0.734l2.097,2.415c0.104,0.105,0.104,0.209,0.104,0.314l-0.307,3.254   c-0.051,0.315,0.307,0.578,0.612,0.472l2.916-1.365C36.463,16.076,36.616,16.076,36.719,16.128z"></path>	</g></g></svg>