<svg xmlns="http://www.w3.org/2000/svg" width="50px" height="50px" viewBox="0 0 50 50" xml:space="preserve">		<ellipse cx="25.322" cy="21.891" rx="12.698" ry="12.738" fill="#0B91CF"></ellipse>		<g fill="#0B91CF">			<path d="m21.96 48.521c0 0.826 0.694 1.479 1.52 1.479h3c0.825 0 1.52-0.695 1.52-1.479v-0.042h-6.04v0.042z"></path>			<path d="m35.344 14.149-15.642 15.807c1.305 1.823 0.564 2.791 0.564 5.053 0 2.868 2.618 1.12 0.532 3.163 2.327-2.282 7.313 3.1 7.767-0.253l-4.952-2.416c-0.576-4.251 18.111-13.249 0.128-20.137-2.085-2.042-2.198 13.327-2.198 10.459 0-2.869 9.765-8.895 11.851-10.936 2.087-2.044-18.852 3.725-15.897 3.725 2.958 0 4.249 0.49 6.474 2.043l9.121-8.904c-2.395-1.688-5.265-2.599-8.089-2.599-3.347 0-6.649 1.26-9.212 3.736-5.084 4.954-5.084 13.036 0 17.992 2.129 2.085 3.389 4.691 3.693 7.431 0.086 0.52 0.652 1.563 1.652 1.563h7.647c1.001 0 1.607-1.044 1.651-1.563 0.349-2.693 1.564-5.346 3.695-7.431 4.776-4.565 5.126-11.779 1.215-16.733z"></path>		</g>			<path d="m26.305 21.884 9.691-10.69-10.689 9.647c-0.435-0.086-0.956 0-1.304 0.347-0.522 0.521-0.522 1.435 0 1.957s1.435 0.522 1.956 0c0.346-0.349 0.477-0.826 0.346-1.261z" fill="#fff"></path>			<path d="m20.612 43.7h8.734c1.477 0 1.477-2.305 0-2.305h-8.734c-1.478 1e-3 -1.478 2.305 0 2.305z" fill="#0B91CF"></path>			<path d="m20.612 47.22h8.734c1.477 0 1.477-2.303 0-2.303h-8.734c-1.478-2e-3 -1.478 2.303 0 2.303z" fill="#0B91CF"></path>		<g fill="#fff">			<path d="m17.322 22.188c-0.043-0.216-0.043-0.477-0.043-0.739 0-0.478 0.043-0.913 0.13-1.391l-1.346-0.521c-0.174 0.87-0.262 1.737-0.174 2.607h1.433v0.044z"></path>			<path d="m17.975 18.365c0.391-0.826 0.913-1.606 1.607-2.26 0.087-0.086 0.13-0.128 0.218-0.217l-0.782-1.173c-0.173 0.129-0.305 0.261-0.478 0.436-0.869 0.867-1.521 1.825-1.956 2.867l1.391 0.347z"></path>			<path d="m20.364 13.802 0.869 1.087c0.869-0.479 1.869-0.825 2.912-0.913l0.087-1.391c-1.347 0.087-2.693 0.522-3.868 1.217z"></path>			<path d="m29.708 13.802c-1.215-0.695-2.521-1.086-3.868-1.216l0.086 1.391c1.045 0.129 1.999 0.434 2.911 0.913l0.871-1.088z"></path>		</g>					<path d="m25 5.917c-0.612 0-1.018-0.408-1.018-1.019v-3.357c0-0.611 0.406-1.018 1.018-1.018 0.61 0 1.016 0.408 1.016 1.018v3.358c0 0.509-0.406 1.018-1.016 1.018z" fill="#0B91CF"></path>					<path d="m15.94 7.545-1.627-2.849c-0.306-0.509-0.103-1.12 0.406-1.426s1.119-0.101 1.425 0.407l1.628 2.85c0.307 0.508 0.103 1.119-0.407 1.426-0.609 0.305-1.219 0.102-1.425-0.408z" fill="#0B91CF"></path>					<path d="m10.242 13.958-2.85-1.629c-0.509-0.305-0.61-0.916-0.408-1.425 0.306-0.508 0.916-0.611 1.426-0.407l2.85 1.628c0.508 0.305 0.61 0.917 0.407 1.426-0.305 0.509-0.917 0.712-1.425 0.407z" fill="#0B91CF"></path>					<path d="m8.512 22.304h-3.258c-0.611 0-1.018-0.406-1.018-1.017 0-0.612 0.407-1.018 1.018-1.018h3.358c0.61 0 1.018 0.407 1.018 1.018-0.1 0.611-0.508 1.017-1.118 1.017z" fill="#0B91CF"></path>					<path d="m6.983 31.668c-0.303-0.508-0.101-1.12 0.408-1.425l2.85-1.628c0.508-0.306 1.12-0.102 1.426 0.407 0.303 0.51 0.101 1.118-0.406 1.425l-2.851 1.629c-0.509 0.304-1.12 0.1-1.427-0.408z" fill="#0B91CF"></path>					<path d="m41.59 32.076-2.849-1.629c-0.509-0.307-0.611-0.916-0.406-1.426 0.305-0.51 0.913-0.611 1.423-0.408l2.849 1.63c0.51 0.305 0.612 0.916 0.408 1.423-0.307 0.51-0.916 0.714-1.425 0.41z" fill="#0B91CF"></path>					<path d="m44.744 22.304h-3.358c-0.61 0-1.015-0.406-1.015-1.017 0-0.612 0.407-1.018 1.015-1.018h3.358c0.612 0 1.02 0.407 1.02 1.018s-0.408 1.017-1.02 1.017z" fill="#0B91CF"></path>					<path d="m38.335 13.653c-0.307-0.51-0.103-1.12 0.406-1.426l2.849-1.628c0.509-0.305 1.118-0.101 1.425 0.408 0.307 0.51 0.102 1.119-0.408 1.425l-2.849 1.628c-0.51 0.203-1.118 0-1.423-0.407z" fill="#0B91CF"></path>					<path d="m32.734 7.954c-0.509-0.306-0.61-0.917-0.407-1.426l1.63-2.85c0.303-0.508 0.915-0.609 1.423-0.407 0.51 0.305 0.612 0.916 0.408 1.426l-1.627 2.849c-0.307 0.509-0.917 0.712-1.427 0.408z" fill="#0B91CF"></path></svg>