<svg xmlns="http://www.w3.org/2000/svg" xmlns:xlink="http://www.w3.org/1999/xlink" id="Layer_1" x="0px" y="0px" width="36px" height="41px" viewBox="0 0 36 41" xml:space="preserve"><path fill="#1091CE" d="M30,30.749H6v-4.101h24V30.749z M30,22.549H6v-4.101h24V22.549z M30,14.349H6v-4.1h24V14.349z M0,40.998 l3-3.074l3,3.074l3-3.074l3,3.074l3-3.074l3,3.074l3-3.074l3,3.074l3-3.074l3,3.074l3-3.074l3,3.074v-41l-3,3.075l-3-3.075l-3,3.075 l-3-3.075l-3,3.075l-3-3.075l-3,3.075l-3-3.075L9,3.074L6-0.001L3,3.074L0-0.001V40.998z"></path></svg>