<svg xmlns="http://www.w3.org/2000/svg" xmlns:xlink="http://www.w3.org/1999/xlink" id="Layer_1" x="0px" y="0px" width="40px" height="45px" viewBox="0 0 40 45" xml:space="preserve"><path fill="#1091CE" d="M35.555,4.499h-9.288c-0.934-2.61-3.378-4.5-6.267-4.5c-2.89,0-5.334,1.89-6.267,4.5H4.444 C2,4.499,0,6.523,0,8.999v31.5c0,2.474,2,4.499,4.444,4.499h31.11C38,44.998,40,42.973,40,40.499v-31.5 C40,6.523,38,4.499,35.555,4.499z M20,4.499c1.222,0,2.222,1.012,2.222,2.25c0,1.238-1,2.25-2.222,2.25 c-1.223,0-2.223-1.012-2.223-2.25C17.777,5.511,18.777,4.499,20,4.499z M24.444,35.998H8.889v-4.5h15.556V35.998z M31.11,26.998 H8.889v-4.5H31.11V26.998z M31.11,17.999H8.889v-4.5H31.11V17.999z"></path></svg>