<svg xmlns="http://www.w3.org/2000/svg" xmlns:xlink="http://www.w3.org/1999/xlink" id="Layer_1" x="0px" y="0px" width="40px" height="52px" viewBox="0 0 40 52" xml:space="preserve"><g>	<g>		<path fill="#1091CE" d="M22.861,9.058h-0.855V9.055c0-0.278,0.236-0.505,0.54-0.505c0.007,0,0.014,0,0.021,0h0.284   c0.008,0,0.016,0,0.023-0.002c0.276-0.005,0.502-0.231,0.502-0.507c0-0.259-0.202-0.473-0.456-0.503   c-0.015-0.003-0.029-0.005-0.045-0.006h-1.382c-0.097,0-0.172-0.074-0.172-0.169c0-0.096,0.075-0.17,0.172-0.17h0.005   c0.094-0.001,0.17-0.078,0.169-0.171c-0.002-0.094-0.079-0.168-0.174-0.167c-0.282,0-0.514,0.229-0.514,0.508   c0,0.059,0.013,0.116,0.032,0.169h-0.168c-0.006,0-0.012,0-0.018,0c-0.001,0-0.001,0-0.001,0c-0.006,0-0.012,0-0.018,0   c-0.097,0-0.172-0.074-0.172-0.169c0-0.096,0.075-0.17,0.172-0.17h0.005c0.094-0.001,0.17-0.078,0.168-0.171   c-0.001-0.094-0.079-0.168-0.173-0.167c-0.282,0-0.514,0.229-0.514,0.508c0,0.279,0.231,0.508,0.514,0.508   c0.006,0,0.012,0,0.018,0s0.012,0,0.019,0h0.824c0.005,0,0.01,0,0.014,0h1.182c0.097,0,0.171,0.074,0.171,0.169   c0,0.095-0.074,0.17-0.171,0.17c-0.003,0-0.005,0-0.008,0c-0.001,0-0.003,0-0.005,0H21.84c-0.019-0.001-0.036,0.002-0.053,0.007   c-0.447,0.038-0.808,0.394-0.808,0.838v0.003h-0.513v8.473l1.027-0.002v-5.082c0-0.119,0.063-0.23,0.168-0.291l1.2-0.705V9.058z    M21.664,9.055v0.003h-0.343V9.055c0-0.272,0.228-0.494,0.521-0.503C21.732,8.692,21.664,8.865,21.664,9.055z M39.815,9.771V0.002   H6.921v44.957H40V9.771H39.815z M12.594,41.418l-2.135-2.057l0.811-0.869l1.229,1.184l2.926-3.521l0.9,0.773L12.594,41.418z    M12.594,29.799l-2.135-2.057l0.811-0.871l1.229,1.183l2.926-3.521l0.9,0.774L12.594,29.799z M17.387,12.108   c0-4.492,3.677-8.134,8.213-8.134c4.535,0,8.212,3.642,8.212,8.134c0,4.493-3.677,8.134-8.212,8.134   C21.063,20.243,17.387,16.601,17.387,12.108z M36.626,40.752H20.17v-1.12h16.456V40.752z M36.626,37.941H20.17V36.82h16.456   V37.941z M36.676,29.064H20.17v-1.082h16.505V29.064z M36.676,26.351H20.17v-1.083h16.505V26.351z M5.53,4.48H3.325v44.21h32.528   v-2.183H5.53V4.48z M31.074,11.092l-2.31,1.355v-1.355l-2.311,1.355v-1.355l-2.31,1.355v-1.355l-2.31,1.355v5.081l9.239,0.003   V11.092z M23.888,16.513h-1.026v-1.017h1.026V16.513z M23.888,14.48h-1.026v-1.017h1.026V14.48z M25.941,16.513h-1.026v-1.017   h1.026V16.513z M25.941,14.48h-1.026v-1.017h1.026V14.48z M27.994,16.513h-1.026v-1.017h1.026V16.513z M27.994,14.48h-1.026   v-1.017h1.026V14.48z M30.048,16.513h-1.026v-1.017h1.026V16.513z M30.048,14.48h-1.026v-1.017h1.026V14.48z M2.208,7.784H0.004   v44.21h32.529v-2.183H2.208V7.784z"></path>	</g></g><rect x="39.815" y="0.002" fill="#1091CE" width="0.185" height="10.207"></rect></svg>