<svg xmlns="http://www.w3.org/2000/svg" xmlns:xlink="http://www.w3.org/1999/xlink" id="Layer_1" x="0px" y="0px" width="50px" height="50px" viewBox="0 0 50 50" xml:space="preserve"><g>	<g>		<path fill="#1091CE" d="M46.316,0v38.538h3.687V0H46.316z M22.825,8.202h0.102v30.337h20.129V0H18.469   C20.815,2.063,22.419,4.949,22.825,8.202z M9.833,22.926c-3.914,0-7.431-1.727-9.833-4.458V40.17c0,5.423,4.411,9.833,9.833,9.833   s9.833-4.41,9.833-9.832V18.469C17.264,21.2,13.747,22.926,9.833,22.926z M9.833,0C4.411,0,0,4.411,0,9.832   c0,5.422,4.411,9.833,9.833,9.833s9.833-4.412,9.833-9.833C19.666,4.411,15.254,0,9.833,0z M9.833,14.724   c-2.697,0-4.892-2.195-4.892-4.892c0-2.697,2.194-4.891,4.892-4.891s4.892,2.194,4.892,4.891   C14.725,12.529,12.53,14.724,9.833,14.724z M9.833,8.202c-0.899,0-1.631,0.731-1.631,1.631c0,0.899,0.731,1.63,1.631,1.63   c0.899,0,1.63-0.731,1.63-1.63C11.463,8.933,10.732,8.202,9.833,8.202z"></path>	</g></g></svg>