<svg xmlns="http://www.w3.org/2000/svg" width="50px" height="50px" viewBox="0 0 50 50" xml:space="preserve">		<path d="m19.379 32.906c-0.84-1.438-2.312-3.194-3.783-4.898-1.261-1.438-2.627-2.98-3.573-4.418-0.63-1.012-1.892-1.012-2.732-0.479-1.051 0.639-1.839 2.076-0.683 4.312 0.578 1.172 1.997 2.715 3.468 4.367 0.104 0.105 0.157 0.211 0.262 0.318 0.369 0.374 0.263 1.012-0.158 1.278-0.368 0.214-0.788 0.106-1.103-0.159-0.105-0.107-0.158-0.16-0.262-0.268-1.104-1.33-2.155-2.448-2.943-3.514-0.316-0.426-0.578-0.852-0.789-1.277-0.893-1.703-0.893-3.247-0.42-4.419-0.789-1.704-1.472-3.301-1.787-4.366-0.946-3.034-5.044-2.289-4.887 0.959s1.313 14.215 4.466 17.941c1.418 1.703 3.993 3.994 6.726 5.909 0.42 0.319 0.683 0.8 0.683 1.331v2.236c0 0.693 0.525 1.225 1.208 1.225h7.671c0.683 0 1.209-0.531 1.209-1.225-0.052-1.33-0.105-3.567-0.21-5.482-0.261-4.047-1.469-7.827-2.363-9.371zm25.642-13.523c-0.314 1.065-0.998 2.662-1.786 4.42 0.472 1.171 0.421 2.715-0.421 4.418-0.211 0.426-0.473 0.799-0.787 1.277-0.788 1.066-1.786 2.236-2.943 3.515-0.051 0.106-0.156 0.16-0.211 0.267-0.262 0.32-0.734 0.426-1.103 0.158-0.421-0.265-0.526-0.904-0.157-1.276 0.105-0.106 0.157-0.214 0.262-0.319 1.472-1.65 2.891-3.195 3.521-4.366 1.104-2.183 0.368-3.673-0.683-4.313-0.893-0.532-2.102-0.532-2.732 0.479-0.945 1.438-2.259 2.981-3.572 4.418-1.472 1.705-2.943 3.461-3.783 4.898-0.947 1.598-2.102 5.324-2.365 9.264-0.105 1.918-0.157 4.153-0.211 5.484 0 0.691 0.526 1.225 1.209 1.225h7.672c0.684 0 1.209-0.533 1.209-1.225v-2.236c0-0.532 0.263-1.011 0.684-1.33 2.732-1.918 5.306-4.207 6.725-5.91 3.153-3.727 4.256-14.641 4.467-17.889 0.05-3.248-4.048-3.993-4.995-0.959zm-6.935-5.058c0-7.352-5.882-13.31-13.136-13.31-7.255 0-13.137 5.958-13.137 13.31 0 7.351 5.881 13.31 13.137 13.31 7.254 0 13.136-5.959 13.136-13.31zm-13.696-11.408h1.117v2.34h-1.117v-2.34zm-8.39 11.976h-2.31v-1.135h2.31v1.135zm1.374-9.037 1.64 1.659-0.791 0.801-1.637-1.661 0.788-0.799zm3e-3 16.935-0.788-0.798 1.637-1.662 0.791 0.802-1.64 1.658zm8.129 2.943h-1.116v-2.34h1.117v2.34zm2.908-6.635-2.887-2.925c-0.694 0.316-1.508 1e-3 -1.82-0.703-0.311-0.702 0-1.529 0.694-1.843 0.023-0.012 0.047-0.022 0.072-0.031v-6h0.958v5.988c0.714 0.27 1.076 1.076 0.811 1.799-0.011 0.03-0.022 0.062-0.037 0.092l2.889 2.925-0.68 0.698zm4.104 3.695-1.642-1.657 0.792-0.804 1.637 1.662-0.787 0.799zm-0.846-14.478-0.793-0.801 1.641-1.659 0.787 0.799-1.635 1.661zm2.228 5.442h2.309v1.132h-2.309v-1.132z" fill="#0991D0"></path></svg>