<svg xmlns="http://www.w3.org/2000/svg" xmlns:xlink="http://www.w3.org/1999/xlink" id="Layer_1" x="0px" y="0px" width="1920px" height="163.508px" viewBox="0 0 1920 163.508" xml:space="preserve"><g>	<g>		<path fill="#006592" d="M-0.188,17.087C-0.585,28.274,0,59.451,0,124.66C152.918,39.287,305.95,14.604,465.272,24.304   c151.601,8.449,298.188,51.575,439.708,78.413c142.839,28.85,280.704,54.037,447.827,60.191c5.233,0.15,10.497,0.275,15.79,0.369   c5.294,0.096,10.618,0.162,15.975,0.199c10.712,0.071,21.549,0.021,32.52-0.168c21.938-0.379,44.407-1.316,67.428-2.961   c5.755-0.412,11.543-0.867,17.366-1.371c5.824-0.502,11.683-1.052,17.574-1.648c11.784-1.195,23.705-2.588,35.756-4.195   c24.103-3.213,48.728-7.289,73.812-12.346c100.016-19.977,189.776-57.086,290.975-110.9c0-29.054,0.374,24.363,0.374-29.887   c-0.002,0.057-0.373,0-490.334,0H0c0.057,4.728-0.196,12.087-0.196,16.575"></path>	</g></g></svg>