<svg xmlns="http://www.w3.org/2000/svg" xmlns:xlink="http://www.w3.org/1999/xlink" id="Layer_1" x="0px" y="0px" width="1919.275px" height="165.227px" viewBox="0 0 1919.275 165.227" xml:space="preserve"><g>	<g>		<path fill="#f4fafe" d="M0,165.227l1919.275,4.001c0.731-73.304,0.125-86.74,0.125-127.516   c-91.506,41.456-172.525,76.577-247.482,89.647c-22.646,4.263-45.357,7.46-68.002,9.667c-11.322,1.104-22.629,1.961-33.902,2.588   c-5.637,0.313-11.266,0.567-16.885,0.769s-11.229,0.345-16.824,0.436c-22.395,0.366-44.61-0.117-66.59-1.287   c-5.494-0.293-10.975-0.629-16.438-1.005c-2.732-0.188-5.463-0.386-8.188-0.594c-2.725-0.207-5.444-0.425-8.164-0.65   c-5.434-0.454-10.854-0.945-16.258-1.473c-5.404-0.526-10.793-1.089-16.164-1.683c-172.117-20.039-326.07-67.467-483.71-99.544   C764.241,4.14,602.898-8.385,446.727,5.653C289.957,19.375,140.934,50.957,0,127.026"></path>	</g></g><path display="none" fill="#f4fafe" d="M1895.914,44.881"></path><line display="none" fill="none" x1="-0.845" y1="171" x2="1919.155" y2="171"></line><rect x="1919.145" y="41.771" display="none" fill="#f4fafe" width="0.131" height="4.262"></rect><rect x="1918.133" y="42.51" display="none" fill="#f4fafe" width="1.076" height="2.156"></rect></svg>