<svg xmlns="http://www.w3.org/2000/svg" xmlns:xlink="http://www.w3.org/1999/xlink" id="Layer_1" x="0px" y="0px" width="1920px" height="170px" viewBox="0 0 1920 170" xml:space="preserve"><g>	<g>		<path fill="#066693" d="M0,169.999L1920,174c0-22.562,0-81.932,0-127.436c-91.506,41.456-173.125,76.498-248.082,89.567   c-22.646,4.264-45.357,7.46-68.002,9.667c-11.322,1.104-22.629,1.961-33.902,2.589c-5.637,0.313-11.266,0.566-16.885,0.769   s-11.229,0.345-16.824,0.436c-22.395,0.366-44.609-0.116-66.59-1.286c-5.494-0.293-10.975-0.63-16.438-1.006   c-2.732-0.188-5.463-0.386-8.188-0.594c-2.725-0.207-5.443-0.425-8.164-0.649c-5.434-0.454-10.854-0.945-16.258-1.474   c-5.404-0.525-10.793-1.089-16.164-1.683c-172.116-20.039-326.069-67.467-483.71-99.544   C764.241,8.912,602.898-3.612,446.727,10.425C289.957,24.147,140.934,55.729,0,131.798"></path>	</g></g></svg>