<svg xmlns="http://www.w3.org/2000/svg" width="84px" height="50px" viewBox="0 0 84 50" xml:space="preserve">	<path d="m15.157 26.021c3.122 0 5.703-3.39 6.107-7.79-0.274 0.069-0.611 0.203-0.979 0.459 0 0 0.698-4.139-0.774-4.722 0 0-2.031 0.987-4.354 1.051-2.323-0.063-4.354-1.051-4.354-1.051-1.471 0.582-0.773 4.722-0.773 4.722-0.368-0.256-0.706-0.391-0.98-0.459 0.403 4.4 2.983 7.79 6.107 7.79z" fill="none"></path>	<path d="m42.188 26.316c4.018 0 7.327-4.362 7.852-10.019-0.354 0.09-0.786 0.26-1.259 0.59 0 0 0.895-5.323-0.998-6.069 0 0-2.609 1.269-5.596 1.35-2.986-0.082-5.6-1.35-5.6-1.35-1.891 0.747-0.995 6.068-0.995 6.069-0.473-0.33-0.907-0.5-1.261-0.59 0.524 5.657 3.84 10.019 7.857 10.019z" fill="none"></path>	<path d="m74.837 18.482-2.028-0.258c1.113-0.642 0.525-2.049 0.25-2.522-0.083-0.139-0.137-0.22-0.137-0.22-0.021 0.012-0.032 0.023-0.049 0.034-3.172 2.283-5.768 3.15-5.768 3.15-1.432 0.567-3.836 0.964-3.836 0.964 0.398 4.282 2.907 7.583 5.948 7.583 1.992 0 3.76-1.419 4.853-3.607 0.598-1.202 0.994-2.633 1.108-4.188 0.042-0.284 0.064-0.572 0.066-0.866l-0.37-0.07h-0.037z" fill="none"></path>	<path d="m72.195 28.268 0.797-1.662c-1.082 1.049-2.38 1.662-3.774 1.662-1.428 0-2.754-0.643-3.849-1.736l1.144 2.551c-0.266-0.438-1.3-0.66-2.518-0.77 0.469 0.873 1.638 1.576 3.146 1.916l2.076 3.375 2.078-3.375c1.835-0.416 3.161-1.363 3.348-2.492-1.178-0.032-2.182 0.089-2.448 0.531z" fill="none"></path>	<path d="m76.543 27.875c1.537 0.172 2.891 0.438 2.891 0.438-3.074-1.688-2.997-7.755-2.997-7.755 0.541-11.749-7.213-11.133-7.213-11.133l-0.01 0.017-2e-3 -0.017s-7.753-0.616-7.22 11.133c0 0 0.08 6.068-2.991 7.755 0 0 0.826-0.055 1.933-0.074-0.959 0.426-1.826 1.018-2.571 1.734 2.019 2.383 3.129 5.385 3.129 8.525 0 0.748-0.074 1.438-0.201 2.078 1.021-0.01 2.134-0.057 3.303-0.057h9.246c4.961 0 8.979 0.877 8.979-4.082 0-4.015-2.637-7.412-6.276-8.562zm-5.247 2.354-2.078 3.375-2.076-3.375c-1.513-0.34-2.678-1.043-3.146-1.916 1.218 0.109 2.248 0.332 2.518 0.77l-1.147-2.551c1.099 1.094 2.423 1.736 3.849 1.736 1.398 0 2.696-0.613 3.778-1.662l-0.801 1.662c0.27-0.441 1.273-0.563 2.452-0.531-0.188 1.128-1.518 2.076-3.349 2.492zm3.883-10.812c-0.114 1.556-0.511 2.986-1.108 4.188-1.093 2.188-2.86 3.607-4.856 3.607-3.037 0-5.548-3.301-5.944-7.582 0 0 2.401-0.397 3.836-0.964 0 0 2.596-0.867 5.768-3.15 0.017-0.012 0.028-0.022 0.045-0.034 0 0 0.058 0.083 0.141 0.22 0.275 0.473 0.863 1.879-0.25 2.521l2.028 0.259h0.038l0.37 0.068c-8e-3 0.295-0.026 0.585-0.068 0.867z" fill="#0991D0"></path>	<path d="m26.356 29.58c0.106-0.115 0.216-0.227 0.325-0.338-1.505-1.631-3.589-2.715-5.926-2.93-0.037 1.682-2.528 3.041-5.599 3.041s-5.563-1.359-5.599-3.041c-4.697 0.43-8.376 4.379-8.376 9.184 0 5.1 4.13 5.086 9.224 5.086h9.502c1.112 0 2.178 0 3.166-0.055-0.124-0.623-0.188-1.301-0.188-2.029-1e-3 -3.312 1.233-6.478 3.471-8.918z" fill="#0991D0"></path>	<path d="m8.178 17.976c7e-3 0.066 0.012 0.132 0.018 0.198 0.444 5.037 3.393 8.925 6.962 8.925 3.565 0 6.515-3.888 6.961-8.925 5e-3 -0.066 9e-3 -0.132 0.015-0.198 0.033-0.218 0.054-0.439 0.066-0.664 0.01-0.153 0.015-0.307 0.015-0.463 0-0.383-0.027-0.76-0.081-1.126-0.515-3.569-3.442-6.303-6.976-6.303-3.535 0-6.463 2.734-6.979 6.303-0.052 0.366-0.079 0.742-0.079 1.126 0 0.157 3e-3 0.311 0.014 0.463 0.013 0.225 0.033 0.446 0.064 0.664zm2.625-4.007s2.031 0.987 4.354 1.051c2.322-0.063 4.353-1.051 4.353-1.051 1.474 0.582 0.774 4.722 0.774 4.722 0.367-0.256 0.703-0.391 0.979-0.459-0.404 4.4-2.985 7.79-6.105 7.79-3.124 0-5.705-3.39-6.109-7.79 0.275 0.069 0.612 0.203 0.98 0.459-1e-3 -1e-3 -0.697-4.141 0.774-4.722z" fill="#0991D0"></path>	<path d="m49.385 26.686c-0.049 2.164-3.253 3.91-7.196 3.91-3.948 0-7.154-1.746-7.199-3.91-6.039 0.553-10.77 5.631-10.77 11.813 0 6.518 5.258 6.535 11.762 6.535h0.099 12.214 0.099c6.504 0 11.763-0.018 11.763-6.535 0-6.183-4.729-11.261-10.772-11.813z" fill="#0991D0"></path>	<path d="m33.215 15.968c7e-3 0.085 0.015 0.171 0.022 0.255 0.571 6.477 4.36 11.476 8.95 11.476 4.588 0 8.374-5 8.947-11.476 8e-3 -0.084 0.016-0.17 0.022-0.255 0.04-0.28 0.066-0.565 0.084-0.853 0.012-0.197 0.019-0.396 0.019-0.595 0-0.492-0.036-0.976-0.103-1.45-0.662-4.588-4.429-8.103-8.97-8.103-4.546 0-8.309 3.514-8.974 8.103-0.068 0.474-0.102 0.958-0.102 1.45 0 0.199 6e-3 0.398 0.017 0.595 0.021 0.289 0.049 0.574 0.088 0.853zm3.374-5.15s2.614 1.269 5.6 1.35c2.985-0.082 5.597-1.35 5.597-1.35 1.891 0.747 0.998 6.068 0.998 6.069 0.471-0.33 0.903-0.5 1.257-0.59-0.521 5.657-3.834 10.019-7.852 10.019-4.015 0-7.332-4.362-7.854-10.019 0.354 0.09 0.787 0.26 1.259 0.59-1e-3 1e-3 -0.897-5.322 0.995-6.069z" fill="#0991D0"></path></svg>